<svg width="376" height="341" viewBox="0 0 376 341" fill="none" xmlns="http://www.w3.org/2000/svg">
<path d="M368.5 165.5L276.5 0.5L185.5 165.5H368.5Z" fill="#0EA5E9"/>
<path d="M276.5 0.5H92L185.5 165.5L276.5 0.5Z" fill="url(#paint0_linear_2_5)"/>
<path d="M92 0.5L0 165.5H185.5L92 0.5Z" fill="url(#paint1_linear_2_5)"/>
<path d="M0 165.5L92 328.5L185.5 165.5H0Z" fill="url(#paint2_linear_2_5)"/>
<path d="M375.5 175.5H191L284.5 340.5L375.5 175.5Z" fill="#3B82F6"/>
<path d="M191 175.5L99 340.5H284.5L191 175.5Z" fill="url(#paint3_linear_2_5)"/>
<defs>
<linearGradient id="paint0_linear_2_5" x1="103.5" y1="20" x2="237" y2="70.5" gradientUnits="userSpaceOnUse">
<stop stop-color="#3B82F6"/>
<stop offset="1" stop-color="#0EA5E9" stop-opacity="0.67"/>
</linearGradient>
<linearGradient id="paint1_linear_2_5" x1="92" y1="3.67902e-06" x2="92.5" y2="164" gradientUnits="userSpaceOnUse">
<stop stop-color="#3B82F6" stop-opacity="0.68"/>
<stop offset="1" stop-color="#3B82F6"/>
</linearGradient>
<linearGradient id="paint2_linear_2_5" x1="88.5" y1="165" x2="91.5" y2="329" gradientUnits="userSpaceOnUse">
<stop stop-color="#3B82F6"/>
<stop offset="1" stop-color="#7C3AED"/>
</linearGradient>
<linearGradient id="paint3_linear_2_5" x1="173.5" y1="286" x2="251.5" y2="260.5" gradientUnits="userSpaceOnUse">
<stop stop-color="#4F46E5"/>
<stop offset="1" stop-color="#3B82F6" stop-opacity="0.87"/>
</linearGradient>
</defs>
</svg>
